<?xml version="1.0" encoding="utf-8"?>
<!-- Generator: Adobe Illustrator 27.0.1, SVG Export Plug-In . SVG Version: 6.00 Build 0)  -->
<svg version="1.1" id="Layer_1" xmlns="http://www.w3.org/2000/svg" xmlns:xlink="http://www.w3.org/1999/xlink" x="0px" y="0px"
	 viewBox="0 0 1137.4 470.6" style="enable-background:new 0 0 1137.4 470.6;" xml:space="preserve">
<style type="text/css">
	.st0{fill:#603225;}
	.st1{fill:#894C34;}
	.st2{fill:#007033;}
	.st3{fill:#00E562;}
	.st4{fill:#00B753;}
</style>
<rect x="-4.2" class="st0" width="1163.3" height="470.6"/>
<g>
	<rect x="1119.5" y="143" class="st0" width="20.4" height="20.4"/>
	<rect x="1119.5" y="122.6" class="st1" width="20.4" height="20.4"/>
	<rect x="1119.5" y="102.2" class="st0" width="20.4" height="20.4"/>
	<rect x="1119.5" y="81.7" class="st1" width="20.4" height="20.4"/>
	<rect x="1119.5" y="61.3" class="st2" width="20.4" height="20.4"/>
	<rect x="1119.5" y="40.9" class="st2" width="20.4" height="20.4"/>
	<rect x="1119.5" y="20.4" class="st3" width="20.4" height="20.4"/>
	<rect x="1119.5" class="st3" width="20.4" height="20.4"/>
	<rect x="1099" y="143" class="st0" width="20.4" height="20.4"/>
	<rect x="1099" y="122.6" class="st0" width="20.4" height="20.4"/>
	<rect x="1099" y="102.2" class="st1" width="20.4" height="20.4"/>
	<rect x="1099" y="81.7" class="st1" width="20.4" height="20.4"/>
	<rect x="1099" y="61.3" class="st2" width="20.4" height="20.4"/>
	<rect x="1099" y="40.9" class="st2" width="20.4" height="20.4"/>
	<rect x="1099" y="20.4" class="st4" width="20.4" height="20.4"/>
	<rect x="1099" class="st3" width="20.4" height="20.4"/>
	<rect x="1078.6" y="143" class="st0" width="20.4" height="20.4"/>
	<rect x="1078.6" y="122.6" class="st1" width="20.4" height="20.4"/>
	<rect x="1078.6" y="102.2" class="st0" width="20.4" height="20.4"/>
	<rect x="1078.6" y="81.7" class="st1" width="20.4" height="20.4"/>
	<rect x="1078.6" y="61.3" class="st1" width="20.4" height="20.4"/>
	<rect x="1078.6" y="40.9" class="st4" width="20.4" height="20.4"/>
	<rect x="1078.6" y="20.4" class="st4" width="20.4" height="20.4"/>
	<rect x="1078.6" class="st3" width="20.4" height="20.4"/>
	<rect x="1058.2" y="143" class="st0" width="20.4" height="20.4"/>
	<rect x="1058.2" y="122.6" class="st1" width="20.4" height="20.4"/>
	<rect x="1058.2" y="102.2" class="st1" width="20.4" height="20.4"/>
	<rect x="1058.2" y="81.7" class="st1" width="20.4" height="20.4"/>
	<rect x="1058.2" y="61.3" class="st2" width="20.4" height="20.4"/>
	<rect x="1058.2" y="40.9" class="st4" width="20.4" height="20.4"/>
	<rect x="1058.2" y="20.4" class="st4" width="20.4" height="20.4"/>
	<rect x="1058.2" class="st3" width="20.4" height="20.4"/>
	<rect x="1037.8" y="143" class="st0" width="20.4" height="20.4"/>
	<rect x="1037.8" y="122.6" class="st1" width="20.4" height="20.4"/>
	<rect x="1037.8" y="102.2" class="st1" width="20.4" height="20.4"/>
	<rect x="1037.8" y="81.7" class="st1" width="20.4" height="20.4"/>
	<rect x="1037.8" y="61.3" class="st2" width="20.4" height="20.4"/>
	<rect x="1037.8" y="40.9" class="st2" width="20.4" height="20.4"/>
	<rect x="1037.8" y="20.4" class="st3" width="20.4" height="20.4"/>
	<rect x="1037.8" class="st3" width="20.4" height="20.4"/>
	<rect x="1017.3" y="143" class="st0" width="20.4" height="20.4"/>
	<rect x="1017.3" y="122.6" class="st0" width="20.4" height="20.4"/>
	<rect x="1017.3" y="102.2" class="st1" width="20.4" height="20.4"/>
	<rect x="1017.3" y="81.7" class="st1" width="20.4" height="20.4"/>
	<rect x="1017.3" y="61.3" class="st1" width="20.4" height="20.4"/>
	<rect x="1017.3" y="40.9" class="st1" width="20.4" height="20.4"/>
	<rect x="1017.3" y="20.4" class="st3" width="20.4" height="20.4"/>
	<rect x="1017.3" class="st3" width="20.4" height="20.4"/>
	<rect x="996.9" y="143" class="st0" width="20.4" height="20.4"/>
	<rect x="996.9" y="122.6" class="st0" width="20.4" height="20.4"/>
	<rect x="996.9" y="102.2" class="st0" width="20.4" height="20.4"/>
	<rect x="996.9" y="81.7" class="st1" width="20.4" height="20.4"/>
	<rect x="996.9" y="61.3" class="st1" width="20.4" height="20.4"/>
	<rect x="996.9" y="40.9" class="st1" width="20.4" height="20.4"/>
	<rect x="996.9" y="20.4" class="st3" width="20.4" height="20.4"/>
	<rect x="996.9" class="st3" width="20.4" height="20.4"/>
	<rect x="976.5" y="143" class="st0" width="20.4" height="20.4"/>
	<rect x="976.5" y="122.6" class="st0" width="20.4" height="20.4"/>
	<rect x="976.5" y="102.2" class="st1" width="20.4" height="20.4"/>
	<rect x="976.5" y="81.7" class="st1" width="20.4" height="20.4"/>
	<rect x="976.5" y="61.3" class="st1" width="20.4" height="20.4"/>
	<rect x="976.5" y="40.9" class="st4" width="20.4" height="20.4"/>
	<rect x="976.5" y="20.4" class="st3" width="20.4" height="20.4"/>
	<rect x="976.5" class="st3" width="20.4" height="20.4"/>
	<rect x="956" y="143" class="st0" width="20.4" height="20.4"/>
	<rect x="956" y="122.6" class="st1" width="20.4" height="20.4"/>
	<rect x="956" y="102.2" class="st1" width="20.4" height="20.4"/>
	<rect x="956" y="81.7" class="st1" width="20.4" height="20.4"/>
	<rect x="956" y="61.3" class="st1" width="20.4" height="20.4"/>
	<rect x="956" y="40.9" class="st4" width="20.4" height="20.4"/>
	<rect x="956" y="20.4" class="st3" width="20.4" height="20.4"/>
	<rect x="956" class="st3" width="20.4" height="20.4"/>
	<rect x="935.6" y="143" class="st0" width="20.4" height="20.4"/>
	<rect x="935.6" y="122.6" class="st0" width="20.4" height="20.4"/>
	<rect x="935.6" y="102.2" class="st1" width="20.4" height="20.4"/>
	<rect x="935.6" y="81.7" class="st1" width="20.4" height="20.4"/>
	<rect x="935.6" y="61.3" class="st2" width="20.4" height="20.4"/>
	<rect x="935.6" y="40.9" class="st4" width="20.4" height="20.4"/>
	<rect x="935.6" y="20.4" class="st4" width="20.4" height="20.4"/>
	<rect x="935.6" class="st3" width="20.4" height="20.4"/>
	<rect x="915.2" y="143" class="st0" width="20.4" height="20.4"/>
	<rect x="915.2" y="122.6" class="st1" width="20.4" height="20.4"/>
	<rect x="915.2" y="102.2" class="st0" width="20.4" height="20.4"/>
	<rect x="915.2" y="81.7" class="st1" width="20.4" height="20.4"/>
	<rect x="915.2" y="61.3" class="st2" width="20.4" height="20.4"/>
	<rect x="915.2" y="40.9" class="st2" width="20.4" height="20.4"/>
	<rect x="915.2" y="20.4" class="st4" width="20.4" height="20.4"/>
	<rect x="915.2" class="st3" width="20.4" height="20.4"/>
	<rect x="894.7" y="143" class="st0" width="20.4" height="20.4"/>
	<rect x="894.7" y="122.6" class="st1" width="20.4" height="20.4"/>
	<rect x="894.7" y="102.2" class="st1" width="20.4" height="20.4"/>
	<rect x="894.7" y="81.7" class="st1" width="20.4" height="20.4"/>
	<rect x="894.7" y="61.3" class="st1" width="20.4" height="20.4"/>
	<rect x="894.7" y="40.9" class="st4" width="20.4" height="20.4"/>
	<rect x="894.7" y="20.4" class="st3" width="20.4" height="20.4"/>
	<rect x="894.7" class="st3" width="20.4" height="20.4"/>
	<rect x="874.3" y="143" class="st0" width="20.4" height="20.4"/>
	<rect x="874.3" y="122.6" class="st0" width="20.4" height="20.4"/>
	<rect x="874.3" y="102.2" class="st1" width="20.4" height="20.4"/>
	<rect x="874.3" y="81.7" class="st1" width="20.4" height="20.4"/>
	<rect x="874.3" y="61.3" class="st1" width="20.4" height="20.4"/>
	<rect x="874.3" y="40.9" class="st2" width="20.4" height="20.4"/>
	<rect x="874.3" y="20.4" class="st3" width="20.4" height="20.4"/>
	<rect x="874.3" class="st3" width="20.4" height="20.4"/>
	<rect x="853.9" y="143" class="st0" width="20.4" height="20.4"/>
	<rect x="853.9" y="122.6" class="st0" width="20.4" height="20.4"/>
	<rect x="853.9" y="102.2" class="st1" width="20.4" height="20.4"/>
	<rect x="853.9" y="81.7" class="st1" width="20.4" height="20.4"/>
	<rect x="853.9" y="61.3" class="st2" width="20.4" height="20.4"/>
	<rect x="853.9" y="40.9" class="st2" width="20.4" height="20.4"/>
	<rect x="853.9" y="20.4" class="st4" width="20.4" height="20.4"/>
	<rect x="853.9" class="st3" width="20.4" height="20.4"/>
	<rect x="833.5" y="143" class="st0" width="20.4" height="20.4"/>
	<rect x="833.5" y="122.6" class="st1" width="20.4" height="20.4"/>
	<rect x="833.5" y="102.2" class="st1" width="20.4" height="20.4"/>
	<rect x="833.5" y="81.7" class="st1" width="20.4" height="20.4"/>
	<rect x="833.5" y="61.3" class="st1" width="20.4" height="20.4"/>
	<rect x="833.5" y="40.9" class="st4" width="20.4" height="20.4"/>
	<rect x="833.5" y="20.4" class="st3" width="20.4" height="20.4"/>
	<rect x="833.5" class="st3" width="20.4" height="20.4"/>
	<rect x="813" y="143" class="st0" width="20.4" height="20.4"/>
	<rect x="813" y="122.6" class="st1" width="20.4" height="20.4"/>
	<rect x="813" y="102.2" class="st1" width="20.4" height="20.4"/>
	<rect x="813" y="81.7" class="st1" width="20.4" height="20.4"/>
	<rect x="813" y="61.3" class="st1" width="20.4" height="20.4"/>
	<rect x="813" y="40.9" class="st2" width="20.4" height="20.4"/>
	<rect x="813" y="20.4" class="st4" width="20.4" height="20.4"/>
	<rect x="813" class="st3" width="20.4" height="20.4"/>
	<rect x="792.6" y="143" class="st0" width="20.4" height="20.4"/>
	<rect x="792.6" y="122.6" class="st1" width="20.4" height="20.4"/>
	<rect x="792.6" y="102.2" class="st1" width="20.4" height="20.4"/>
	<rect x="792.6" y="81.7" class="st1" width="20.4" height="20.4"/>
	<rect x="792.6" y="61.3" class="st1" width="20.4" height="20.4"/>
	<rect x="792.6" y="40.9" class="st4" width="20.4" height="20.4"/>
	<rect x="792.6" y="20.4" class="st4" width="20.4" height="20.4"/>
	<rect x="792.6" class="st3" width="20.4" height="20.4"/>
	<rect x="772.2" y="143" class="st0" width="20.4" height="20.4"/>
	<rect x="772.2" y="122.6" class="st0" width="20.4" height="20.4"/>
	<rect x="772.2" y="102.2" class="st0" width="20.4" height="20.4"/>
	<rect x="772.2" y="81.7" class="st1" width="20.4" height="20.4"/>
	<rect x="772.2" y="61.3" class="st2" width="20.4" height="20.4"/>
	<rect x="772.2" y="40.9" class="st2" width="20.4" height="20.4"/>
	<rect x="772.2" y="20.4" class="st3" width="20.4" height="20.4"/>
	<rect x="772.2" class="st3" width="20.4" height="20.4"/>
	<rect x="751.7" y="143" class="st0" width="20.4" height="20.4"/>
	<rect x="751.7" y="122.6" class="st0" width="20.4" height="20.4"/>
	<rect x="751.7" y="102.2" class="st1" width="20.4" height="20.4"/>
	<rect x="751.7" y="81.7" class="st1" width="20.4" height="20.4"/>
	<rect x="751.7" y="61.3" class="st2" width="20.4" height="20.4"/>
	<rect x="751.7" y="40.9" class="st4" width="20.4" height="20.4"/>
	<rect x="751.7" y="20.4" class="st4" width="20.4" height="20.4"/>
	<rect x="751.7" class="st3" width="20.4" height="20.4"/>
	<rect x="731.3" y="143" class="st0" width="20.4" height="20.4"/>
	<rect x="731.3" y="122.6" class="st0" width="20.4" height="20.4"/>
	<rect x="731.3" y="102.2" class="st1" width="20.4" height="20.4"/>
	<rect x="731.3" y="81.7" class="st1" width="20.4" height="20.4"/>
	<rect x="731.3" y="61.3" class="st1" width="20.4" height="20.4"/>
	<rect x="731.3" y="40.9" class="st4" width="20.4" height="20.4"/>
	<rect x="731.3" y="20.4" class="st3" width="20.4" height="20.4"/>
	<rect x="731.3" class="st3" width="20.4" height="20.4"/>
	<rect x="710.9" y="143" class="st0" width="20.4" height="20.4"/>
	<rect x="710.9" y="122.6" class="st1" width="20.4" height="20.4"/>
	<rect x="710.9" y="102.2" class="st1" width="20.4" height="20.4"/>
	<rect x="710.9" y="81.7" class="st1" width="20.4" height="20.4"/>
	<rect x="710.9" y="61.3" class="st1" width="20.4" height="20.4"/>
	<rect x="710.9" y="40.9" class="st4" width="20.4" height="20.4"/>
	<rect x="710.9" y="20.4" class="st4" width="20.4" height="20.4"/>
	<rect x="710.9" class="st3" width="20.4" height="20.4"/>
	<rect x="690.5" y="143" class="st0" width="20.4" height="20.4"/>
	<rect x="690.5" y="122.6" class="st1" width="20.4" height="20.4"/>
	<rect x="690.5" y="102.2" class="st1" width="20.4" height="20.4"/>
	<rect x="690.5" y="81.7" class="st1" width="20.4" height="20.4"/>
	<rect x="690.5" y="61.3" class="st1" width="20.4" height="20.4"/>
	<rect x="690.5" y="40.9" class="st4" width="20.4" height="20.4"/>
	<rect x="690.5" y="20.4" class="st4" width="20.4" height="20.4"/>
	<rect x="690.5" class="st3" width="20.4" height="20.4"/>
	<rect x="670" y="143" class="st0" width="20.4" height="20.4"/>
	<rect x="670" y="122.6" class="st0" width="20.4" height="20.4"/>
	<rect x="670" y="102.2" class="st1" width="20.4" height="20.4"/>
	<rect x="670" y="81.7" class="st1" width="20.4" height="20.4"/>
	<rect x="670" y="61.3" class="st2" width="20.4" height="20.4"/>
	<rect x="670" y="40.9" class="st4" width="20.4" height="20.4"/>
	<rect x="670" y="20.4" class="st3" width="20.4" height="20.4"/>
	<rect x="670" class="st3" width="20.4" height="20.4"/>
	<rect x="649.6" y="143" class="st0" width="20.4" height="20.4"/>
	<rect x="649.6" y="122.6" class="st1" width="20.4" height="20.4"/>
	<rect x="649.6" y="102.2" class="st1" width="20.4" height="20.4"/>
	<rect x="649.6" y="81.7" class="st1" width="20.4" height="20.4"/>
	<rect x="649.6" y="61.3" class="st2" width="20.4" height="20.4"/>
	<rect x="649.6" y="40.9" class="st2" width="20.4" height="20.4"/>
	<rect x="649.6" y="20.4" class="st3" width="20.4" height="20.4"/>
	<rect x="649.6" class="st3" width="20.4" height="20.4"/>
	<rect x="629.2" y="143" class="st0" width="20.4" height="20.4"/>
	<rect x="629.2" y="122.6" class="st1" width="20.4" height="20.4"/>
	<rect x="629.2" y="102.2" class="st0" width="20.4" height="20.4"/>
	<rect x="629.2" y="81.7" class="st1" width="20.4" height="20.4"/>
	<rect x="629.2" y="61.3" class="st2" width="20.4" height="20.4"/>
	<rect x="629.2" y="40.9" class="st2" width="20.4" height="20.4"/>
	<rect x="629.2" y="20.4" class="st3" width="20.4" height="20.4"/>
	<rect x="629.2" class="st3" width="20.4" height="20.4"/>
	<rect x="608.7" y="143" class="st0" width="20.4" height="20.4"/>
	<rect x="608.7" y="122.6" class="st0" width="20.4" height="20.4"/>
	<rect x="608.7" y="102.2" class="st0" width="20.4" height="20.4"/>
	<rect x="608.7" y="81.7" class="st1" width="20.4" height="20.4"/>
	<rect x="608.7" y="61.3" class="st1" width="20.4" height="20.4"/>
	<rect x="608.7" y="40.9" class="st2" width="20.4" height="20.4"/>
	<rect x="608.7" y="20.4" class="st4" width="20.4" height="20.4"/>
	<rect x="608.7" class="st3" width="20.4" height="20.4"/>
	<rect x="588.3" y="143" class="st0" width="20.4" height="20.4"/>
	<rect x="588.3" y="122.6" class="st0" width="20.4" height="20.4"/>
	<rect x="588.3" y="102.2" class="st0" width="20.4" height="20.4"/>
	<rect x="588.3" y="81.7" class="st1" width="20.4" height="20.4"/>
	<rect x="588.3" y="61.3" class="st1" width="20.4" height="20.4"/>
	<rect x="588.3" y="40.9" class="st4" width="20.4" height="20.4"/>
	<rect x="588.3" y="20.4" class="st3" width="20.4" height="20.4"/>
	<rect x="588.3" class="st3" width="20.4" height="20.4"/>
	<rect x="567.9" y="143" class="st0" width="20.4" height="20.4"/>
	<rect x="567.9" y="122.6" class="st0" width="20.4" height="20.4"/>
	<rect x="567.9" y="102.2" class="st1" width="20.4" height="20.4"/>
	<rect x="567.9" y="81.7" class="st1" width="20.4" height="20.4"/>
	<rect x="567.9" y="61.3" class="st1" width="20.4" height="20.4"/>
	<rect x="567.9" y="40.9" class="st2" width="20.4" height="20.4"/>
	<rect x="567.9" y="20.4" class="st3" width="20.4" height="20.4"/>
	<rect x="567.9" class="st3" width="20.4" height="20.4"/>
	<rect x="547.4" y="143" class="st0" width="20.4" height="20.4"/>
	<rect x="547.4" y="122.6" class="st0" width="20.4" height="20.4"/>
	<rect x="547.4" y="102.2" class="st1" width="20.4" height="20.4"/>
	<rect x="547.4" y="81.7" class="st1" width="20.4" height="20.4"/>
	<rect x="547.4" y="61.3" class="st1" width="20.4" height="20.4"/>
	<rect x="547.4" y="40.9" class="st4" width="20.4" height="20.4"/>
	<rect x="547.4" y="20.4" class="st4" width="20.4" height="20.4"/>
	<rect x="547.4" class="st3" width="20.4" height="20.4"/>
	<rect x="527" y="143" class="st0" width="20.4" height="20.4"/>
	<rect x="527" y="122.6" class="st1" width="20.4" height="20.4"/>
	<rect x="527" y="102.2" class="st1" width="20.4" height="20.4"/>
	<rect x="527" y="81.7" class="st1" width="20.4" height="20.4"/>
	<rect x="527" y="61.3" class="st1" width="20.4" height="20.4"/>
	<rect x="527" y="40.9" class="st2" width="20.4" height="20.4"/>
	<rect x="527" y="20.4" class="st3" width="20.4" height="20.4"/>
	<rect x="527" class="st3" width="20.4" height="20.4"/>
	<rect x="506.6" y="143" class="st0" width="20.4" height="20.4"/>
	<rect x="506.6" y="122.6" class="st0" width="20.4" height="20.4"/>
	<rect x="506.6" y="102.2" class="st1" width="20.4" height="20.4"/>
	<rect x="506.6" y="81.7" class="st1" width="20.4" height="20.4"/>
	<rect x="506.6" y="61.3" class="st2" width="20.4" height="20.4"/>
	<rect x="506.6" y="40.9" class="st4" width="20.4" height="20.4"/>
	<rect x="506.6" y="20.4" class="st4" width="20.4" height="20.4"/>
	<rect x="506.6" class="st3" width="20.4" height="20.4"/>
	<rect x="486.1" y="143" class="st0" width="20.4" height="20.4"/>
	<rect x="486.1" y="122.6" class="st1" width="20.4" height="20.4"/>
	<rect x="486.1" y="102.2" class="st1" width="20.4" height="20.4"/>
	<rect x="486.1" y="81.7" class="st1" width="20.4" height="20.4"/>
	<rect x="486.1" y="61.3" class="st2" width="20.4" height="20.4"/>
	<rect x="486.1" y="40.9" class="st2" width="20.4" height="20.4"/>
	<rect x="486.1" y="20.4" class="st3" width="20.4" height="20.4"/>
	<rect x="486.1" class="st3" width="20.4" height="20.4"/>
	<rect x="465.7" y="143" class="st0" width="20.4" height="20.4"/>
	<rect x="465.7" y="122.6" class="st0" width="20.4" height="20.4"/>
	<rect x="465.7" y="102.2" class="st1" width="20.4" height="20.4"/>
	<rect x="465.7" y="81.7" class="st1" width="20.4" height="20.4"/>
	<rect x="465.7" y="61.3" class="st2" width="20.4" height="20.4"/>
	<rect x="465.7" y="40.9" class="st2" width="20.4" height="20.4"/>
	<rect x="465.7" y="20.4" class="st4" width="20.4" height="20.4"/>
	<rect x="465.7" class="st3" width="20.4" height="20.4"/>
	<rect x="445.3" y="143" class="st0" width="20.4" height="20.4"/>
	<rect x="445.3" y="122.6" class="st1" width="20.4" height="20.4"/>
	<rect x="445.3" y="102.2" class="st1" width="20.4" height="20.4"/>
	<rect x="445.3" y="81.7" class="st1" width="20.4" height="20.4"/>
	<rect x="445.3" y="61.3" class="st1" width="20.4" height="20.4"/>
	<rect x="445.3" y="40.9" class="st4" width="20.4" height="20.4"/>
	<rect x="445.3" y="20.4" class="st3" width="20.4" height="20.4"/>
	<rect x="445.3" class="st3" width="20.4" height="20.4"/>
	<rect x="424.9" y="143" class="st0" width="20.4" height="20.4"/>
	<rect x="424.9" y="122.6" class="st0" width="20.4" height="20.4"/>
	<rect x="424.9" y="102.2" class="st1" width="20.4" height="20.4"/>
	<rect x="424.9" y="81.7" class="st1" width="20.4" height="20.4"/>
	<rect x="424.9" y="61.3" class="st1" width="20.4" height="20.4"/>
	<rect x="424.9" y="40.9" class="st4" width="20.4" height="20.4"/>
	<rect x="424.9" y="20.4" class="st4" width="20.4" height="20.4"/>
	<rect x="424.9" class="st3" width="20.4" height="20.4"/>
	<rect x="404.4" y="143" class="st0" width="20.4" height="20.4"/>
	<rect x="404.4" y="122.6" class="st0" width="20.4" height="20.4"/>
	<rect x="404.4" y="102.2" class="st1" width="20.4" height="20.4"/>
	<rect x="404.4" y="81.7" class="st1" width="20.4" height="20.4"/>
	<rect x="404.4" y="61.3" class="st2" width="20.4" height="20.4"/>
	<rect x="404.4" y="40.9" class="st2" width="20.4" height="20.4"/>
	<rect x="404.4" y="20.4" class="st3" width="20.4" height="20.4"/>
	<rect x="404.4" class="st3" width="20.4" height="20.4"/>
	<rect x="384" y="143" class="st0" width="20.4" height="20.4"/>
	<rect x="384" y="122.6" class="st1" width="20.4" height="20.4"/>
	<rect x="384" y="102.2" class="st0" width="20.4" height="20.4"/>
	<rect x="384" y="81.7" class="st1" width="20.4" height="20.4"/>
	<rect x="384" y="61.3" class="st2" width="20.4" height="20.4"/>
	<rect x="384" y="40.9" class="st2" width="20.4" height="20.4"/>
	<rect x="384" y="20.4" class="st4" width="20.4" height="20.4"/>
	<rect x="384" class="st3" width="20.4" height="20.4"/>
	<rect x="363.6" y="143" class="st0" width="20.4" height="20.4"/>
	<rect x="363.6" y="122.6" class="st1" width="20.4" height="20.4"/>
	<rect x="363.6" y="102.2" class="st0" width="20.4" height="20.4"/>
	<rect x="363.6" y="81.7" class="st1" width="20.4" height="20.4"/>
	<rect x="363.6" y="61.3" class="st2" width="20.4" height="20.4"/>
	<rect x="363.6" y="40.9" class="st2" width="20.4" height="20.4"/>
	<rect x="363.6" y="20.4" class="st4" width="20.4" height="20.4"/>
	<rect x="363.6" class="st3" width="20.4" height="20.4"/>
	<rect x="343.2" y="143" class="st0" width="20.4" height="20.4"/>
	<rect x="343.2" y="122.6" class="st0" width="20.4" height="20.4"/>
	<rect x="343.2" y="102.2" class="st1" width="20.4" height="20.4"/>
	<rect x="343.2" y="81.7" class="st1" width="20.4" height="20.4"/>
	<rect x="343.2" y="61.3" class="st2" width="20.4" height="20.4"/>
	<rect x="343.2" y="40.9" class="st4" width="20.4" height="20.4"/>
	<rect x="343.2" y="20.4" class="st3" width="20.4" height="20.4"/>
	<rect x="343.2" class="st3" width="20.4" height="20.4"/>
	<rect x="322.7" y="143" class="st0" width="20.4" height="20.4"/>
	<rect x="322.7" y="122.6" class="st0" width="20.4" height="20.4"/>
	<rect x="322.7" y="102.2" class="st1" width="20.4" height="20.4"/>
	<rect x="322.7" y="81.7" class="st1" width="20.4" height="20.4"/>
	<rect x="322.7" y="61.3" class="st2" width="20.4" height="20.4"/>
	<rect x="322.7" y="40.9" class="st4" width="20.4" height="20.4"/>
	<rect x="322.7" y="20.4" class="st4" width="20.4" height="20.4"/>
	<rect x="322.7" class="st3" width="20.4" height="20.4"/>
	<rect x="302.3" y="143" class="st0" width="20.4" height="20.4"/>
	<rect x="302.3" y="122.6" class="st1" width="20.4" height="20.4"/>
	<rect x="302.3" y="102.2" class="st1" width="20.4" height="20.4"/>
	<rect x="302.3" y="81.7" class="st1" width="20.4" height="20.4"/>
	<rect x="302.3" y="61.3" class="st1" width="20.4" height="20.4"/>
	<rect x="302.3" y="40.9" class="st2" width="20.4" height="20.4"/>
	<rect x="302.3" y="20.4" class="st4" width="20.4" height="20.4"/>
	<rect x="302.3" class="st3" width="20.4" height="20.4"/>
	<rect x="281.9" y="143" class="st0" width="20.4" height="20.4"/>
	<rect x="281.9" y="122.6" class="st0" width="20.4" height="20.4"/>
	<rect x="281.9" y="102.2" class="st1" width="20.4" height="20.4"/>
	<rect x="281.9" y="81.7" class="st1" width="20.4" height="20.4"/>
	<rect x="281.9" y="61.3" class="st1" width="20.4" height="20.4"/>
	<rect x="281.9" y="40.9" class="st2" width="20.4" height="20.4"/>
	<rect x="281.9" y="20.4" class="st4" width="20.4" height="20.4"/>
	<rect x="281.9" class="st3" width="20.4" height="20.4"/>
	<rect x="261.4" y="143" class="st0" width="20.4" height="20.4"/>
	<rect x="261.4" y="122.6" class="st1" width="20.4" height="20.4"/>
	<rect x="261.4" y="102.2" class="st1" width="20.4" height="20.4"/>
	<rect x="261.4" y="81.7" class="st1" width="20.4" height="20.4"/>
	<rect x="261.4" y="61.3" class="st2" width="20.4" height="20.4"/>
	<rect x="261.4" y="40.9" class="st4" width="20.4" height="20.4"/>
	<rect x="261.4" y="20.4" class="st3" width="20.4" height="20.4"/>
	<rect x="261.4" class="st3" width="20.4" height="20.4"/>
	<rect x="241" y="143" class="st0" width="20.4" height="20.4"/>
	<rect x="241" y="122.6" class="st0" width="20.4" height="20.4"/>
	<rect x="241" y="102.2" class="st1" width="20.4" height="20.4"/>
	<rect x="241" y="81.7" class="st1" width="20.4" height="20.4"/>
	<rect x="241" y="61.3" class="st1" width="20.4" height="20.4"/>
	<rect x="241" y="40.9" class="st2" width="20.4" height="20.4"/>
	<rect x="241" y="20.4" class="st3" width="20.4" height="20.4"/>
	<rect x="241" class="st3" width="20.4" height="20.4"/>
	<rect x="220.6" y="143" class="st0" width="20.4" height="20.4"/>
	<rect x="220.6" y="122.6" class="st1" width="20.4" height="20.4"/>
	<rect x="220.6" y="102.2" class="st1" width="20.4" height="20.4"/>
	<rect x="220.6" y="81.7" class="st1" width="20.4" height="20.4"/>
	<rect x="220.6" y="61.3" class="st1" width="20.4" height="20.4"/>
	<rect x="220.6" y="40.9" class="st4" width="20.4" height="20.4"/>
	<rect x="220.6" y="20.4" class="st4" width="20.4" height="20.4"/>
	<rect x="220.6" class="st3" width="20.4" height="20.4"/>
	<rect x="200.1" y="143" class="st0" width="20.4" height="20.4"/>
	<rect x="200.1" y="122.6" class="st0" width="20.4" height="20.4"/>
	<rect x="200.1" y="102.2" class="st1" width="20.4" height="20.4"/>
	<rect x="200.1" y="81.7" class="st1" width="20.4" height="20.4"/>
	<rect x="200.1" y="61.3" class="st2" width="20.4" height="20.4"/>
	<rect x="200.1" y="40.9" class="st4" width="20.4" height="20.4"/>
	<rect x="200.1" y="20.4" class="st3" width="20.4" height="20.4"/>
	<rect x="200.1" class="st3" width="20.4" height="20.4"/>
	<rect x="179.7" y="143" class="st0" width="20.4" height="20.4"/>
	<rect x="179.7" y="122.6" class="st0" width="20.4" height="20.4"/>
	<rect x="179.7" y="102.2" class="st1" width="20.4" height="20.4"/>
	<rect x="179.7" y="81.7" class="st1" width="20.4" height="20.4"/>
	<rect x="179.7" y="61.3" class="st2" width="20.4" height="20.4"/>
	<rect x="179.7" y="40.9" class="st4" width="20.4" height="20.4"/>
	<rect x="179.7" y="20.4" class="st4" width="20.4" height="20.4"/>
	<rect x="179.7" class="st3" width="20.4" height="20.4"/>
	<rect x="159.3" y="143" class="st0" width="20.4" height="20.4"/>
	<rect x="159.3" y="122.6" class="st1" width="20.4" height="20.4"/>
	<rect x="159.3" y="102.2" class="st1" width="20.4" height="20.4"/>
	<rect x="159.3" y="81.7" class="st1" width="20.4" height="20.4"/>
	<rect x="159.3" y="61.3" class="st2" width="20.4" height="20.4"/>
	<rect x="159.3" y="40.9" class="st2" width="20.4" height="20.4"/>
	<rect x="159.3" y="20.4" class="st3" width="20.4" height="20.4"/>
	<rect x="159.3" class="st3" width="20.4" height="20.4"/>
	<rect x="138.8" y="143" class="st0" width="20.4" height="20.4"/>
	<rect x="138.8" y="122.6" class="st1" width="20.4" height="20.4"/>
	<rect x="138.8" y="102.2" class="st1" width="20.4" height="20.4"/>
	<rect x="138.8" y="81.7" class="st1" width="20.4" height="20.4"/>
	<rect x="138.8" y="61.3" class="st1" width="20.4" height="20.4"/>
	<rect x="138.8" y="40.9" class="st2" width="20.4" height="20.4"/>
	<rect x="138.8" y="20.4" class="st4" width="20.4" height="20.4"/>
	<rect x="138.8" class="st3" width="20.4" height="20.4"/>
	<rect x="118.4" y="143" class="st0" width="20.4" height="20.4"/>
	<rect x="118.4" y="122.6" class="st0" width="20.4" height="20.4"/>
	<rect x="118.4" y="102.2" class="st1" width="20.4" height="20.4"/>
	<rect x="118.4" y="81.7" class="st1" width="20.4" height="20.4"/>
	<rect x="118.4" y="61.3" class="st1" width="20.4" height="20.4"/>
	<rect x="118.4" y="40.9" class="st2" width="20.4" height="20.4"/>
	<rect x="118.4" y="20.4" class="st3" width="20.4" height="20.4"/>
	<rect x="118.4" class="st3" width="20.4" height="20.4"/>
	<rect x="98" y="143" class="st0" width="20.4" height="20.4"/>
	<rect x="98" y="122.6" class="st0" width="20.4" height="20.4"/>
	<rect x="98" y="102.2" class="st0" width="20.4" height="20.4"/>
	<rect x="98" y="81.7" class="st1" width="20.4" height="20.4"/>
	<rect x="98" y="61.3" class="st1" width="20.4" height="20.4"/>
	<rect x="98" y="40.9" class="st4" width="20.4" height="20.4"/>
	<rect x="98" y="20.4" class="st4" width="20.4" height="20.4"/>
	<rect x="98" class="st3" width="20.4" height="20.4"/>
	<rect x="77.5" y="143" class="st0" width="20.4" height="20.4"/>
	<rect x="77.5" y="122.6" class="st1" width="20.4" height="20.4"/>
	<rect x="77.5" y="102.2" class="st0" width="20.4" height="20.4"/>
	<rect x="77.5" y="81.7" class="st1" width="20.4" height="20.4"/>
	<rect x="77.5" y="61.3" class="st1" width="20.4" height="20.4"/>
	<rect x="77.5" y="40.9" class="st2" width="20.4" height="20.4"/>
	<rect x="77.5" y="20.4" class="st3" width="20.4" height="20.4"/>
	<rect x="77.5" class="st3" width="20.4" height="20.4"/>
	<rect x="57.1" y="143" class="st0" width="20.4" height="20.4"/>
	<rect x="57.1" y="122.6" class="st0" width="20.4" height="20.4"/>
	<rect x="57.1" y="102.2" class="st1" width="20.4" height="20.4"/>
	<rect x="57.1" y="81.7" class="st1" width="20.4" height="20.4"/>
	<rect x="57.1" y="61.3" class="st2" width="20.4" height="20.4"/>
	<rect x="57.1" y="40.9" class="st2" width="20.4" height="20.4"/>
	<rect x="57.1" y="20.4" class="st3" width="20.4" height="20.4"/>
	<rect x="57.1" class="st3" width="20.4" height="20.4"/>
	<rect x="36.7" y="143" class="st0" width="20.4" height="20.4"/>
	<rect x="36.7" y="122.6" class="st0" width="20.4" height="20.4"/>
	<rect x="36.7" y="102.2" class="st0" width="20.4" height="20.4"/>
	<rect x="36.7" y="81.7" class="st1" width="20.4" height="20.4"/>
	<rect x="36.7" y="61.3" class="st2" width="20.4" height="20.4"/>
	<rect x="36.7" y="40.9" class="st4" width="20.4" height="20.4"/>
	<rect x="36.7" y="20.4" class="st4" width="20.4" height="20.4"/>
	<rect x="36.7" class="st3" width="20.4" height="20.4"/>
	<rect x="16.3" y="143" class="st0" width="20.4" height="20.4"/>
	<rect x="16.3" y="122.6" class="st1" width="20.4" height="20.4"/>
	<rect x="16.3" y="102.2" class="st0" width="20.4" height="20.4"/>
	<rect x="16.3" y="81.7" class="st1" width="20.4" height="20.4"/>
	<rect x="16.3" y="61.3" class="st2" width="20.4" height="20.4"/>
	<rect x="16.3" y="40.9" class="st2" width="20.4" height="20.4"/>
	<rect x="16.3" y="20.4" class="st4" width="20.4" height="20.4"/>
	<rect x="16.3" class="st3" width="20.4" height="20.4"/>
	<rect x="-4.2" y="143" class="st0" width="20.4" height="20.4"/>
	<rect x="-4.2" y="122.6" class="st0" width="20.4" height="20.4"/>
	<rect x="-4.2" y="102.2" class="st0" width="20.4" height="20.4"/>
	<rect x="-4.2" y="81.7" class="st1" width="20.4" height="20.4"/>
	<rect x="-4.2" y="61.3" class="st1" width="20.4" height="20.4"/>
	<rect x="-4.2" y="40.9" class="st2" width="20.4" height="20.4"/>
	<rect x="-4.2" y="20.4" class="st3" width="20.4" height="20.4"/>
	<rect x="-4.2" class="st3" width="20.4" height="20.4"/>
</g>
</svg>
